<?xml version="1.0" encoding="UTF-8" standalone="no"?>
<svg
   version="1.0"
   width="269.95001mm"
   height="127.74mm"
   id="svg72"
   sodipodi:docname="FW.emf"
   xmlns:inkscape="http://www.inkscape.org/namespaces/inkscape"
   xmlns:sodipodi="http://sodipodi.sourceforge.net/DTD/sodipodi-0.dtd"
   xmlns="http://www.w3.org/2000/svg"
   xmlns:svg="http://www.w3.org/2000/svg">
  <sodipodi:namedview
     id="namedview72"
     pagecolor="#ffffff"
     bordercolor="#000000"
     borderopacity="0.25"
     inkscape:showpageshadow="2"
     inkscape:pageopacity="0.0"
     inkscape:pagecheckerboard="0"
     inkscape:deskcolor="#d1d1d1"
     inkscape:document-units="mm" />
  <defs
     id="defs1">
    <pattern
       id="EMFhbasepattern"
       patternUnits="userSpaceOnUse"
       width="6"
       height="6"
       x="0"
       y="0" />
  </defs>
  <path
     style="fill:none;stroke:#000000;stroke-width:1.000737px;stroke-linecap:round;stroke-linejoin:round;stroke-miterlimit:4;stroke-dasharray:none;stroke-opacity:1;"
     d="  M 40.029479,456.33606   L 40.029479,464.34196  "
     id="path1" />
  <text
     xml:space="preserve"
     style="font-size:13.000000px;font-style:normal;font-variant:normal;font-weight:700;font-stretch:Normal;line-height:125.000000%;letter-spacing:0px;word-spacing:0px;fill:#000000;fill-opacity:1;stroke:none;font-family:Arial;text-align:start;text-anchor:start;"
     transform="matrix(1.000000,-0.000000,0.000000,1.000000,58.042745,464.341957)"
     x="-36.860840"
     y="11.768555"
     id="text2"><tspan
       sodipodi:role="line"
       x="-36.860840"
       y="11.768555"
       id="tspan2"><tspan
         dx="0.000000"
         dy="0.000000"
         style="fill:#000000;font-size:13.000000px;font-style:normal;font-variant:normal;font-weight:700;font-stretch:Normal;font-family:Arial;"
         id="tspan1">0.0ms</tspan></tspan></text>
  <path
     style="fill:none;stroke:#000000;stroke-width:1.000737px;stroke-linecap:round;stroke-linejoin:round;stroke-miterlimit:4;stroke-dasharray:none;stroke-opacity:1;"
     d="  M 136.10023,456.33606   L 136.10023,464.34196  "
     id="path2" />
  <text
     xml:space="preserve"
     style="font-size:13.000000px;font-style:normal;font-variant:normal;font-weight:700;font-stretch:Normal;line-height:125.000000%;letter-spacing:0px;word-spacing:0px;fill:#000000;fill-opacity:1;stroke:none;font-family:Arial;text-align:start;text-anchor:start;"
     transform="matrix(1.000000,-0.000000,0.000000,1.000000,154.113494,464.341957)"
     x="-36.860840"
     y="11.768555"
     id="text4"><tspan
       sodipodi:role="line"
       x="-36.860840"
       y="11.768555"
       id="tspan4"><tspan
         dx="0.000000"
         dy="0.000000"
         style="fill:#000000;font-size:13.000000px;font-style:normal;font-variant:normal;font-weight:700;font-stretch:Normal;font-family:Arial;"
         id="tspan3">0.5ms</tspan></tspan></text>
  <path
     style="fill:none;stroke:#000000;stroke-width:1.000737px;stroke-linecap:round;stroke-linejoin:round;stroke-miterlimit:4;stroke-dasharray:none;stroke-opacity:1;"
     d="  M 232.17098,456.33606   L 232.17098,464.34196  "
     id="path4" />
  <text
     xml:space="preserve"
     style="font-size:13.000000px;font-style:normal;font-variant:normal;font-weight:700;font-stretch:Normal;line-height:125.000000%;letter-spacing:0px;word-spacing:0px;fill:#000000;fill-opacity:1;stroke:none;font-family:Arial;text-align:start;text-anchor:start;"
     transform="matrix(1.000000,-0.000000,0.000000,1.000000,250.184244,464.341957)"
     x="-36.860840"
     y="11.768555"
     id="text6"><tspan
       sodipodi:role="line"
       x="-36.860840"
       y="11.768555"
       id="tspan6"><tspan
         dx="0.000000"
         dy="0.000000"
         style="fill:#000000;font-size:13.000000px;font-style:normal;font-variant:normal;font-weight:700;font-stretch:Normal;font-family:Arial;"
         id="tspan5">1.0ms</tspan></tspan></text>
  <path
     style="fill:none;stroke:#000000;stroke-width:1.000737px;stroke-linecap:round;stroke-linejoin:round;stroke-miterlimit:4;stroke-dasharray:none;stroke-opacity:1;"
     d="  M 329.24247,456.33606   L 329.24247,464.34196  "
     id="path6" />
  <text
     xml:space="preserve"
     style="font-size:13.000000px;font-style:normal;font-variant:normal;font-weight:700;font-stretch:Normal;line-height:125.000000%;letter-spacing:0px;word-spacing:0px;fill:#000000;fill-opacity:1;stroke:none;font-family:Arial;text-align:start;text-anchor:start;"
     transform="matrix(1.000000,-0.000000,0.000000,1.000000,347.255731,464.341957)"
     x="-36.860840"
     y="11.768555"
     id="text8"><tspan
       sodipodi:role="line"
       x="-36.860840"
       y="11.768555"
       id="tspan8"><tspan
         dx="0.000000"
         dy="0.000000"
         style="fill:#000000;font-size:13.000000px;font-style:normal;font-variant:normal;font-weight:700;font-stretch:Normal;font-family:Arial;"
         id="tspan7">1.5ms</tspan></tspan></text>
  <path
     style="fill:none;stroke:#000000;stroke-width:1.000737px;stroke-linecap:round;stroke-linejoin:round;stroke-miterlimit:4;stroke-dasharray:none;stroke-opacity:1;"
     d="  M 425.31322,456.33606   L 425.31322,464.34196  "
     id="path8" />
  <text
     xml:space="preserve"
     style="font-size:13.000000px;font-style:normal;font-variant:normal;font-weight:700;font-stretch:Normal;line-height:125.000000%;letter-spacing:0px;word-spacing:0px;fill:#000000;fill-opacity:1;stroke:none;font-family:Arial;text-align:start;text-anchor:start;"
     transform="matrix(1.000000,-0.000000,0.000000,1.000000,443.326481,464.341957)"
     x="-36.860840"
     y="11.768555"
     id="text10"><tspan
       sodipodi:role="line"
       x="-36.860840"
       y="11.768555"
       id="tspan10"><tspan
         dx="0.000000"
         dy="0.000000"
         style="fill:#000000;font-size:13.000000px;font-style:normal;font-variant:normal;font-weight:700;font-stretch:Normal;font-family:Arial;"
         id="tspan9">2.0ms</tspan></tspan></text>
  <path
     style="fill:none;stroke:#000000;stroke-width:1.000737px;stroke-linecap:round;stroke-linejoin:round;stroke-miterlimit:4;stroke-dasharray:none;stroke-opacity:1;"
     d="  M 521.38396,456.33606   L 521.38396,464.34196  "
     id="path10" />
  <text
     xml:space="preserve"
     style="font-size:13.000000px;font-style:normal;font-variant:normal;font-weight:700;font-stretch:Normal;line-height:125.000000%;letter-spacing:0px;word-spacing:0px;fill:#000000;fill-opacity:1;stroke:none;font-family:Arial;text-align:start;text-anchor:start;"
     transform="matrix(1.000000,-0.000000,0.000000,1.000000,539.397231,464.341957)"
     x="-36.860840"
     y="11.768555"
     id="text12"><tspan
       sodipodi:role="line"
       x="-36.860840"
       y="11.768555"
       id="tspan12"><tspan
         dx="0.000000"
         dy="0.000000"
         style="fill:#000000;font-size:13.000000px;font-style:normal;font-variant:normal;font-weight:700;font-stretch:Normal;font-family:Arial;"
         id="tspan11">2.5ms</tspan></tspan></text>
  <path
     style="fill:none;stroke:#000000;stroke-width:1.000737px;stroke-linecap:round;stroke-linejoin:round;stroke-miterlimit:4;stroke-dasharray:none;stroke-opacity:1;"
     d="  M 617.45471,456.33606   L 617.45471,464.34196  "
     id="path12" />
  <text
     xml:space="preserve"
     style="font-size:13.000000px;font-style:normal;font-variant:normal;font-weight:700;font-stretch:Normal;line-height:125.000000%;letter-spacing:0px;word-spacing:0px;fill:#000000;fill-opacity:1;stroke:none;font-family:Arial;text-align:start;text-anchor:start;"
     transform="matrix(1.000000,-0.000000,0.000000,1.000000,635.467980,464.341957)"
     x="-36.860840"
     y="11.768555"
     id="text14"><tspan
       sodipodi:role="line"
       x="-36.860840"
       y="11.768555"
       id="tspan14"><tspan
         dx="0.000000"
         dy="0.000000"
         style="fill:#000000;font-size:13.000000px;font-style:normal;font-variant:normal;font-weight:700;font-stretch:Normal;font-family:Arial;"
         id="tspan13">3.0ms</tspan></tspan></text>
  <path
     style="fill:none;stroke:#000000;stroke-width:1.000737px;stroke-linecap:round;stroke-linejoin:round;stroke-miterlimit:4;stroke-dasharray:none;stroke-opacity:1;"
     d="  M 713.52546,456.33606   L 713.52546,464.34196  "
     id="path14" />
  <text
     xml:space="preserve"
     style="font-size:13.000000px;font-style:normal;font-variant:normal;font-weight:700;font-stretch:Normal;line-height:125.000000%;letter-spacing:0px;word-spacing:0px;fill:#000000;fill-opacity:1;stroke:none;font-family:Arial;text-align:start;text-anchor:start;"
     transform="matrix(1.000000,-0.000000,0.000000,1.000000,731.538730,464.341957)"
     x="-36.860840"
     y="11.768555"
     id="text16"><tspan
       sodipodi:role="line"
       x="-36.860840"
       y="11.768555"
       id="tspan16"><tspan
         dx="0.000000"
         dy="0.000000"
         style="fill:#000000;font-size:13.000000px;font-style:normal;font-variant:normal;font-weight:700;font-stretch:Normal;font-family:Arial;"
         id="tspan15">3.5ms</tspan></tspan></text>
  <path
     style="fill:none;stroke:#000000;stroke-width:1.000737px;stroke-linecap:round;stroke-linejoin:round;stroke-miterlimit:4;stroke-dasharray:none;stroke-opacity:1;"
     d="  M 810.59695,456.33606   L 810.59695,464.34196  "
     id="path16" />
  <text
     xml:space="preserve"
     style="font-size:13.000000px;font-style:normal;font-variant:normal;font-weight:700;font-stretch:Normal;line-height:125.000000%;letter-spacing:0px;word-spacing:0px;fill:#000000;fill-opacity:1;stroke:none;font-family:Arial;text-align:start;text-anchor:start;"
     transform="matrix(1.000000,-0.000000,0.000000,1.000000,828.610217,464.341957)"
     x="-36.860840"
     y="11.768555"
     id="text18"><tspan
       sodipodi:role="line"
       x="-36.860840"
       y="11.768555"
       id="tspan18"><tspan
         dx="0.000000"
         dy="0.000000"
         style="fill:#000000;font-size:13.000000px;font-style:normal;font-variant:normal;font-weight:700;font-stretch:Normal;font-family:Arial;"
         id="tspan17">4.0ms</tspan></tspan></text>
  <path
     style="fill:none;stroke:#000000;stroke-width:1.000737px;stroke-linecap:round;stroke-linejoin:round;stroke-miterlimit:4;stroke-dasharray:none;stroke-opacity:1;"
     d="  M 906.6677,456.33606   L 906.6677,464.34196  "
     id="path18" />
  <text
     xml:space="preserve"
     style="font-size:13.000000px;font-style:normal;font-variant:normal;font-weight:700;font-stretch:Normal;line-height:125.000000%;letter-spacing:0px;word-spacing:0px;fill:#000000;fill-opacity:1;stroke:none;font-family:Arial;text-align:start;text-anchor:start;"
     transform="matrix(1.000000,-0.000000,0.000000,1.000000,924.680967,464.341957)"
     x="-36.860840"
     y="11.768555"
     id="text20"><tspan
       sodipodi:role="line"
       x="-36.860840"
       y="11.768555"
       id="tspan20"><tspan
         dx="0.000000"
         dy="0.000000"
         style="fill:#000000;font-size:13.000000px;font-style:normal;font-variant:normal;font-weight:700;font-stretch:Normal;font-family:Arial;"
         id="tspan19">4.5ms</tspan></tspan></text>
  <path
     style="fill:none;stroke:#000000;stroke-width:1.000737px;stroke-linecap:round;stroke-linejoin:round;stroke-miterlimit:4;stroke-dasharray:none;stroke-opacity:1;"
     d="  M 1002.7385,456.33606   L 1002.7385,464.34196  "
     id="path20" />
  <text
     xml:space="preserve"
     style="font-size:13.000000px;font-style:normal;font-variant:normal;font-weight:700;font-stretch:Normal;line-height:125.000000%;letter-spacing:0px;word-spacing:0px;fill:#000000;fill-opacity:1;stroke:none;font-family:Arial;text-align:start;text-anchor:start;"
     transform="matrix(1.000000,-0.000000,0.000000,1.000000,1020.751716,464.341957)"
     x="-36.860840"
     y="11.768555"
     id="text22"><tspan
       sodipodi:role="line"
       x="-36.860840"
       y="11.768555"
       id="tspan22"><tspan
         dx="0.000000"
         dy="0.000000"
         style="fill:#000000;font-size:13.000000px;font-style:normal;font-variant:normal;font-weight:700;font-stretch:Normal;font-family:Arial;"
         id="tspan21">5.0ms</tspan></tspan></text>
  <text
     xml:space="preserve"
     style="font-size:13.000000px;font-style:normal;font-variant:normal;font-weight:700;font-stretch:Normal;line-height:125.000000%;letter-spacing:0px;word-spacing:0px;fill:#000000;fill-opacity:1;stroke:none;font-family:Arial;text-align:start;text-anchor:start;"
     transform="matrix(1.000000,-0.000000,0.000000,1.000000,1020.751716,464.341957)"
     x="-1019.799910"
     y="-4.243237"
     id="text24"><tspan
       sodipodi:role="line"
       x="-1019.799910"
       y="-4.243237"
       id="tspan24"><tspan
         dx="0.000000"
         dy="0.000000"
         style="fill:#000000;font-size:13.000000px;font-style:normal;font-variant:normal;font-weight:700;font-stretch:Normal;font-family:Arial;"
         id="tspan23">-0.1V</tspan></tspan></text>
  <path
     style="fill:none;stroke:#000000;stroke-width:1.000737px;stroke-linecap:round;stroke-linejoin:round;stroke-miterlimit:4;stroke-dasharray:none;stroke-opacity:1;"
     d="  M 40.029479,456.33606   L 32.023583,456.33606  "
     id="path24" />
  <text
     xml:space="preserve"
     style="font-size:13.000000px;font-style:normal;font-variant:normal;font-weight:700;font-stretch:Normal;line-height:125.000000%;letter-spacing:0px;word-spacing:0px;fill:#000000;fill-opacity:1;stroke:none;font-family:Arial;text-align:start;text-anchor:start;"
     transform="matrix(1.000000,-0.000000,0.000000,1.000000,32.023583,429.316163)"
     x="-26.742676"
     y="11.768555"
     id="text26"><tspan
       sodipodi:role="line"
       x="-26.742676"
       y="11.768555"
       id="tspan26"><tspan
         dx="0.000000"
         dy="0.000000"
         style="fill:#000000;font-size:13.000000px;font-style:normal;font-variant:normal;font-weight:700;font-stretch:Normal;font-family:Arial;"
         id="tspan25">0.0V</tspan></tspan></text>
  <path
     style="fill:none;stroke:#000000;stroke-width:1.000737px;stroke-linecap:round;stroke-linejoin:round;stroke-miterlimit:4;stroke-dasharray:none;stroke-opacity:1;"
     d="  M 40.029479,437.32206   L 32.023583,437.32206  "
     id="path26" />
  <text
     xml:space="preserve"
     style="font-size:13.000000px;font-style:normal;font-variant:normal;font-weight:700;font-stretch:Normal;line-height:125.000000%;letter-spacing:0px;word-spacing:0px;fill:#000000;fill-opacity:1;stroke:none;font-family:Arial;text-align:start;text-anchor:start;"
     transform="matrix(1.000000,-0.000000,0.000000,1.000000,32.023583,410.302161)"
     x="-26.742676"
     y="11.768555"
     id="text28"><tspan
       sodipodi:role="line"
       x="-26.742676"
       y="11.768555"
       id="tspan28"><tspan
         dx="0.000000"
         dy="0.000000"
         style="fill:#000000;font-size:13.000000px;font-style:normal;font-variant:normal;font-weight:700;font-stretch:Normal;font-family:Arial;"
         id="tspan27">0.1V</tspan></tspan></text>
  <path
     style="fill:none;stroke:#000000;stroke-width:1.000737px;stroke-linecap:round;stroke-linejoin:round;stroke-miterlimit:4;stroke-dasharray:none;stroke-opacity:1;"
     d="  M 40.029479,418.30806   L 32.023583,418.30806  "
     id="path28" />
  <text
     xml:space="preserve"
     style="font-size:13.000000px;font-style:normal;font-variant:normal;font-weight:700;font-stretch:Normal;line-height:125.000000%;letter-spacing:0px;word-spacing:0px;fill:#000000;fill-opacity:1;stroke:none;font-family:Arial;text-align:start;text-anchor:start;"
     transform="matrix(1.000000,-0.000000,0.000000,1.000000,32.023583,391.288158)"
     x="-26.742676"
     y="11.768555"
     id="text30"><tspan
       sodipodi:role="line"
       x="-26.742676"
       y="11.768555"
       id="tspan30"><tspan
         dx="0.000000"
         dy="0.000000"
         style="fill:#000000;font-size:13.000000px;font-style:normal;font-variant:normal;font-weight:700;font-stretch:Normal;font-family:Arial;"
         id="tspan29">0.2V</tspan></tspan></text>
  <path
     style="fill:none;stroke:#000000;stroke-width:1.000737px;stroke-linecap:round;stroke-linejoin:round;stroke-miterlimit:4;stroke-dasharray:none;stroke-opacity:1;"
     d="  M 40.029479,399.29405   L 32.023583,399.29405  "
     id="path30" />
  <text
     xml:space="preserve"
     style="font-size:13.000000px;font-style:normal;font-variant:normal;font-weight:700;font-stretch:Normal;line-height:125.000000%;letter-spacing:0px;word-spacing:0px;fill:#000000;fill-opacity:1;stroke:none;font-family:Arial;text-align:start;text-anchor:start;"
     transform="matrix(1.000000,-0.000000,0.000000,1.000000,32.023583,372.274155)"
     x="-26.742676"
     y="11.768555"
     id="text32"><tspan
       sodipodi:role="line"
       x="-26.742676"
       y="11.768555"
       id="tspan32"><tspan
         dx="0.000000"
         dy="0.000000"
         style="fill:#000000;font-size:13.000000px;font-style:normal;font-variant:normal;font-weight:700;font-stretch:Normal;font-family:Arial;"
         id="tspan31">0.3V</tspan></tspan></text>
  <path
     style="fill:none;stroke:#000000;stroke-width:1.000737px;stroke-linecap:round;stroke-linejoin:round;stroke-miterlimit:4;stroke-dasharray:none;stroke-opacity:1;"
     d="  M 40.029479,380.28005   L 32.023583,380.28005  "
     id="path32" />
  <text
     xml:space="preserve"
     style="font-size:13.000000px;font-style:normal;font-variant:normal;font-weight:700;font-stretch:Normal;line-height:125.000000%;letter-spacing:0px;word-spacing:0px;fill:#000000;fill-opacity:1;stroke:none;font-family:Arial;text-align:start;text-anchor:start;"
     transform="matrix(1.000000,-0.000000,0.000000,1.000000,32.023583,353.260153)"
     x="-26.742676"
     y="11.768555"
     id="text34"><tspan
       sodipodi:role="line"
       x="-26.742676"
       y="11.768555"
       id="tspan34"><tspan
         dx="0.000000"
         dy="0.000000"
         style="fill:#000000;font-size:13.000000px;font-style:normal;font-variant:normal;font-weight:700;font-stretch:Normal;font-family:Arial;"
         id="tspan33">0.4V</tspan></tspan></text>
  <path
     style="fill:none;stroke:#000000;stroke-width:1.000737px;stroke-linecap:round;stroke-linejoin:round;stroke-miterlimit:4;stroke-dasharray:none;stroke-opacity:1;"
     d="  M 40.029479,361.26605   L 32.023583,361.26605  "
     id="path34" />
  <text
     xml:space="preserve"
     style="font-size:13.000000px;font-style:normal;font-variant:normal;font-weight:700;font-stretch:Normal;line-height:125.000000%;letter-spacing:0px;word-spacing:0px;fill:#000000;fill-opacity:1;stroke:none;font-family:Arial;text-align:start;text-anchor:start;"
     transform="matrix(1.000000,-0.000000,0.000000,1.000000,32.023583,333.245413)"
     x="-26.742676"
     y="11.768555"
     id="text36"><tspan
       sodipodi:role="line"
       x="-26.742676"
       y="11.768555"
       id="tspan36"><tspan
         dx="0.000000"
         dy="0.000000"
         style="fill:#000000;font-size:13.000000px;font-style:normal;font-variant:normal;font-weight:700;font-stretch:Normal;font-family:Arial;"
         id="tspan35">0.5V</tspan></tspan></text>
  <path
     style="fill:none;stroke:#000000;stroke-width:1.000737px;stroke-linecap:round;stroke-linejoin:round;stroke-miterlimit:4;stroke-dasharray:none;stroke-opacity:1;"
     d="  M 40.029479,341.25131   L 32.023583,341.25131  "
     id="path36" />
  <text
     xml:space="preserve"
     style="font-size:13.000000px;font-style:normal;font-variant:normal;font-weight:700;font-stretch:Normal;line-height:125.000000%;letter-spacing:0px;word-spacing:0px;fill:#000000;fill-opacity:1;stroke:none;font-family:Arial;text-align:start;text-anchor:start;"
     transform="matrix(1.000000,-0.000000,0.000000,1.000000,32.023583,314.231411)"
     x="-26.742676"
     y="11.768555"
     id="text38"><tspan
       sodipodi:role="line"
       x="-26.742676"
       y="11.768555"
       id="tspan38"><tspan
         dx="0.000000"
         dy="0.000000"
         style="fill:#000000;font-size:13.000000px;font-style:normal;font-variant:normal;font-weight:700;font-stretch:Normal;font-family:Arial;"
         id="tspan37">0.6V</tspan></tspan></text>
  <path
     style="fill:none;stroke:#000000;stroke-width:1.000737px;stroke-linecap:round;stroke-linejoin:round;stroke-miterlimit:4;stroke-dasharray:none;stroke-opacity:1;"
     d="  M 40.029479,322.23731   L 32.023583,322.23731  "
     id="path38" />
  <text
     xml:space="preserve"
     style="font-size:13.000000px;font-style:normal;font-variant:normal;font-weight:700;font-stretch:Normal;line-height:125.000000%;letter-spacing:0px;word-spacing:0px;fill:#000000;fill-opacity:1;stroke:none;font-family:Arial;text-align:start;text-anchor:start;"
     transform="matrix(1.000000,-0.000000,0.000000,1.000000,32.023583,295.217408)"
     x="-26.742676"
     y="11.768555"
     id="text40"><tspan
       sodipodi:role="line"
       x="-26.742676"
       y="11.768555"
       id="tspan40"><tspan
         dx="0.000000"
         dy="0.000000"
         style="fill:#000000;font-size:13.000000px;font-style:normal;font-variant:normal;font-weight:700;font-stretch:Normal;font-family:Arial;"
         id="tspan39">0.7V</tspan></tspan></text>
  <path
     style="fill:none;stroke:#000000;stroke-width:1.000737px;stroke-linecap:round;stroke-linejoin:round;stroke-miterlimit:4;stroke-dasharray:none;stroke-opacity:1;"
     d="  M 40.029479,303.2233   L 32.023583,303.2233  "
     id="path40" />
  <text
     xml:space="preserve"
     style="font-size:13.000000px;font-style:normal;font-variant:normal;font-weight:700;font-stretch:Normal;line-height:125.000000%;letter-spacing:0px;word-spacing:0px;fill:#000000;fill-opacity:1;stroke:none;font-family:Arial;text-align:start;text-anchor:start;"
     transform="matrix(1.000000,-0.000000,0.000000,1.000000,32.023583,276.203406)"
     x="-26.742676"
     y="11.768555"
     id="text42"><tspan
       sodipodi:role="line"
       x="-26.742676"
       y="11.768555"
       id="tspan42"><tspan
         dx="0.000000"
         dy="0.000000"
         style="fill:#000000;font-size:13.000000px;font-style:normal;font-variant:normal;font-weight:700;font-stretch:Normal;font-family:Arial;"
         id="tspan41">0.8V</tspan></tspan></text>
  <path
     style="fill:none;stroke:#000000;stroke-width:1.000737px;stroke-linecap:round;stroke-linejoin:round;stroke-miterlimit:4;stroke-dasharray:none;stroke-opacity:1;"
     d="  M 40.029479,284.2093   L 32.023583,284.2093  "
     id="path42" />
  <text
     xml:space="preserve"
     style="font-size:13.000000px;font-style:normal;font-variant:normal;font-weight:700;font-stretch:Normal;line-height:125.000000%;letter-spacing:0px;word-spacing:0px;fill:#000000;fill-opacity:1;stroke:none;font-family:Arial;text-align:start;text-anchor:start;"
     transform="matrix(1.000000,-0.000000,0.000000,1.000000,32.023583,257.189403)"
     x="-26.742676"
     y="11.768555"
     id="text44"><tspan
       sodipodi:role="line"
       x="-26.742676"
       y="11.768555"
       id="tspan44"><tspan
         dx="0.000000"
         dy="0.000000"
         style="fill:#000000;font-size:13.000000px;font-style:normal;font-variant:normal;font-weight:700;font-stretch:Normal;font-family:Arial;"
         id="tspan43">0.9V</tspan></tspan></text>
  <path
     style="fill:none;stroke:#000000;stroke-width:1.000737px;stroke-linecap:round;stroke-linejoin:round;stroke-miterlimit:4;stroke-dasharray:none;stroke-opacity:1;"
     d="  M 40.029479,265.1953   L 32.023583,265.1953  "
     id="path44" />
  <text
     xml:space="preserve"
     style="font-size:13.000000px;font-style:normal;font-variant:normal;font-weight:700;font-stretch:Normal;line-height:125.000000%;letter-spacing:0px;word-spacing:0px;fill:#000000;fill-opacity:1;stroke:none;font-family:Arial;text-align:start;text-anchor:start;"
     transform="matrix(1.000000,-0.000000,0.000000,1.000000,32.023583,238.175400)"
     x="-26.742676"
     y="11.768555"
     id="text46"><tspan
       sodipodi:role="line"
       x="-26.742676"
       y="11.768555"
       id="tspan46"><tspan
         dx="0.000000"
         dy="0.000000"
         style="fill:#000000;font-size:13.000000px;font-style:normal;font-variant:normal;font-weight:700;font-stretch:Normal;font-family:Arial;"
         id="tspan45">1.0V</tspan></tspan></text>
  <path
     style="fill:none;stroke:#000000;stroke-width:1.000737px;stroke-linecap:round;stroke-linejoin:round;stroke-miterlimit:4;stroke-dasharray:none;stroke-opacity:1;"
     d="  M 40.029479,246.1813   L 32.023583,246.1813  "
     id="path46" />
  <path
     style="fill:none;stroke:#000000;stroke-width:1.000737px;stroke-linecap:round;stroke-linejoin:round;stroke-miterlimit:4;stroke-dasharray:none;stroke-opacity:1;"
     d="  M 40.029479,246.1813   L 1002.7385,246.1813   L 1002.7385,456.33606   L 40.029479,456.33606   L 40.029479,246.1813  "
     id="path47" />
  <text
     xml:space="preserve"
     style="font-size:13.000000px;font-style:normal;font-variant:normal;font-weight:700;font-stretch:Normal;line-height:125.000000%;letter-spacing:0px;word-spacing:0px;fill:#000000;fill-opacity:1;stroke:none;font-family:Arial;text-align:start;text-anchor:start;"
     transform="matrix(1.000000,-0.000000,0.000000,1.000000,32.023583,217.159924)"
     x="-31.071777"
     y="11.768555"
     id="text48"><tspan
       sodipodi:role="line"
       x="-31.071777"
       y="11.768555"
       id="tspan48"><tspan
         dx="0.000000"
         dy="0.000000"
         style="fill:#000000;font-size:13.000000px;font-style:normal;font-variant:normal;font-weight:700;font-stretch:Normal;font-family:Arial;"
         id="tspan47">-1.0V</tspan></tspan></text>
  <path
     style="fill:none;stroke:#000000;stroke-width:1.000737px;stroke-linecap:round;stroke-linejoin:round;stroke-miterlimit:4;stroke-dasharray:none;stroke-opacity:1;"
     d="  M 40.029479,225.16582   L 32.023583,225.16582  "
     id="path48" />
  <text
     xml:space="preserve"
     style="font-size:13.000000px;font-style:normal;font-variant:normal;font-weight:700;font-stretch:Normal;line-height:125.000000%;letter-spacing:0px;word-spacing:0px;fill:#000000;fill-opacity:1;stroke:none;font-family:Arial;text-align:start;text-anchor:start;"
     transform="matrix(1.000000,-0.000000,0.000000,1.000000,32.023583,196.144447)"
     x="-31.071777"
     y="11.768555"
     id="text50"><tspan
       sodipodi:role="line"
       x="-31.071777"
       y="11.768555"
       id="tspan50"><tspan
         dx="0.000000"
         dy="0.000000"
         style="fill:#000000;font-size:13.000000px;font-style:normal;font-variant:normal;font-weight:700;font-stretch:Normal;font-family:Arial;"
         id="tspan49">-0.8V</tspan></tspan></text>
  <path
     style="fill:none;stroke:#000000;stroke-width:1.000737px;stroke-linecap:round;stroke-linejoin:round;stroke-miterlimit:4;stroke-dasharray:none;stroke-opacity:1;"
     d="  M 40.029479,204.15034   L 32.023583,204.15034  "
     id="path50" />
  <text
     xml:space="preserve"
     style="font-size:13.000000px;font-style:normal;font-variant:normal;font-weight:700;font-stretch:Normal;line-height:125.000000%;letter-spacing:0px;word-spacing:0px;fill:#000000;fill-opacity:1;stroke:none;font-family:Arial;text-align:start;text-anchor:start;"
     transform="matrix(1.000000,-0.000000,0.000000,1.000000,32.023583,176.129708)"
     x="-31.071777"
     y="11.768555"
     id="text52"><tspan
       sodipodi:role="line"
       x="-31.071777"
       y="11.768555"
       id="tspan52"><tspan
         dx="0.000000"
         dy="0.000000"
         style="fill:#000000;font-size:13.000000px;font-style:normal;font-variant:normal;font-weight:700;font-stretch:Normal;font-family:Arial;"
         id="tspan51">-0.6V</tspan></tspan></text>
  <path
     style="fill:none;stroke:#000000;stroke-width:1.000737px;stroke-linecap:round;stroke-linejoin:round;stroke-miterlimit:4;stroke-dasharray:none;stroke-opacity:1;"
     d="  M 40.029479,184.1356   L 32.023583,184.1356  "
     id="path52" />
  <text
     xml:space="preserve"
     style="font-size:13.000000px;font-style:normal;font-variant:normal;font-weight:700;font-stretch:Normal;line-height:125.000000%;letter-spacing:0px;word-spacing:0px;fill:#000000;fill-opacity:1;stroke:none;font-family:Arial;text-align:start;text-anchor:start;"
     transform="matrix(1.000000,-0.000000,0.000000,1.000000,32.023583,155.114231)"
     x="-31.071777"
     y="11.768555"
     id="text54"><tspan
       sodipodi:role="line"
       x="-31.071777"
       y="11.768555"
       id="tspan54"><tspan
         dx="0.000000"
         dy="0.000000"
         style="fill:#000000;font-size:13.000000px;font-style:normal;font-variant:normal;font-weight:700;font-stretch:Normal;font-family:Arial;"
         id="tspan53">-0.4V</tspan></tspan></text>
  <path
     style="fill:none;stroke:#000000;stroke-width:1.000737px;stroke-linecap:round;stroke-linejoin:round;stroke-miterlimit:4;stroke-dasharray:none;stroke-opacity:1;"
     d="  M 40.029479,163.12013   L 32.023583,163.12013  "
     id="path54" />
  <text
     xml:space="preserve"
     style="font-size:13.000000px;font-style:normal;font-variant:normal;font-weight:700;font-stretch:Normal;line-height:125.000000%;letter-spacing:0px;word-spacing:0px;fill:#000000;fill-opacity:1;stroke:none;font-family:Arial;text-align:start;text-anchor:start;"
     transform="matrix(1.000000,-0.000000,0.000000,1.000000,32.023583,134.098755)"
     x="-31.071777"
     y="11.768555"
     id="text56"><tspan
       sodipodi:role="line"
       x="-31.071777"
       y="11.768555"
       id="tspan56"><tspan
         dx="0.000000"
         dy="0.000000"
         style="fill:#000000;font-size:13.000000px;font-style:normal;font-variant:normal;font-weight:700;font-stretch:Normal;font-family:Arial;"
         id="tspan55">-0.2V</tspan></tspan></text>
  <path
     style="fill:none;stroke:#000000;stroke-width:1.000737px;stroke-linecap:round;stroke-linejoin:round;stroke-miterlimit:4;stroke-dasharray:none;stroke-opacity:1;"
     d="  M 40.029479,142.10465   L 32.023583,142.10465  "
     id="path56" />
  <text
     xml:space="preserve"
     style="font-size:13.000000px;font-style:normal;font-variant:normal;font-weight:700;font-stretch:Normal;line-height:125.000000%;letter-spacing:0px;word-spacing:0px;fill:#000000;fill-opacity:1;stroke:none;font-family:Arial;text-align:start;text-anchor:start;"
     transform="matrix(1.000000,-0.000000,0.000000,1.000000,32.023583,114.084015)"
     x="-26.742676"
     y="11.768555"
     id="text58"><tspan
       sodipodi:role="line"
       x="-26.742676"
       y="11.768555"
       id="tspan58"><tspan
         dx="0.000000"
         dy="0.000000"
         style="fill:#000000;font-size:13.000000px;font-style:normal;font-variant:normal;font-weight:700;font-stretch:Normal;font-family:Arial;"
         id="tspan57">0.0V</tspan></tspan></text>
  <path
     style="fill:none;stroke:#000000;stroke-width:1.000737px;stroke-linecap:round;stroke-linejoin:round;stroke-miterlimit:4;stroke-dasharray:none;stroke-opacity:1;"
     d="  M 40.029479,122.08991   L 32.023583,122.08991  "
     id="path58" />
  <text
     xml:space="preserve"
     style="font-size:13.000000px;font-style:normal;font-variant:normal;font-weight:700;font-stretch:Normal;line-height:125.000000%;letter-spacing:0px;word-spacing:0px;fill:#000000;fill-opacity:1;stroke:none;font-family:Arial;text-align:start;text-anchor:start;"
     transform="matrix(1.000000,-0.000000,0.000000,1.000000,32.023583,93.068539)"
     x="-26.742676"
     y="11.768555"
     id="text60"><tspan
       sodipodi:role="line"
       x="-26.742676"
       y="11.768555"
       id="tspan60"><tspan
         dx="0.000000"
         dy="0.000000"
         style="fill:#000000;font-size:13.000000px;font-style:normal;font-variant:normal;font-weight:700;font-stretch:Normal;font-family:Arial;"
         id="tspan59">0.2V</tspan></tspan></text>
  <path
     style="fill:none;stroke:#000000;stroke-width:1.000737px;stroke-linecap:round;stroke-linejoin:round;stroke-miterlimit:4;stroke-dasharray:none;stroke-opacity:1;"
     d="  M 40.029479,101.07443   L 32.023583,101.07443  "
     id="path60" />
  <text
     xml:space="preserve"
     style="font-size:13.000000px;font-style:normal;font-variant:normal;font-weight:700;font-stretch:Normal;line-height:125.000000%;letter-spacing:0px;word-spacing:0px;fill:#000000;fill-opacity:1;stroke:none;font-family:Arial;text-align:start;text-anchor:start;"
     transform="matrix(1.000000,-0.000000,0.000000,1.000000,32.023583,72.053062)"
     x="-26.742676"
     y="11.768555"
     id="text62"><tspan
       sodipodi:role="line"
       x="-26.742676"
       y="11.768555"
       id="tspan62"><tspan
         dx="0.000000"
         dy="0.000000"
         style="fill:#000000;font-size:13.000000px;font-style:normal;font-variant:normal;font-weight:700;font-stretch:Normal;font-family:Arial;"
         id="tspan61">0.4V</tspan></tspan></text>
  <path
     style="fill:none;stroke:#000000;stroke-width:1.000737px;stroke-linecap:round;stroke-linejoin:round;stroke-miterlimit:4;stroke-dasharray:none;stroke-opacity:1;"
     d="  M 40.029479,80.058958   L 32.023583,80.058958  "
     id="path62" />
  <text
     xml:space="preserve"
     style="font-size:13.000000px;font-style:normal;font-variant:normal;font-weight:700;font-stretch:Normal;line-height:125.000000%;letter-spacing:0px;word-spacing:0px;fill:#000000;fill-opacity:1;stroke:none;font-family:Arial;text-align:start;text-anchor:start;"
     transform="matrix(1.000000,-0.000000,0.000000,1.000000,32.023583,51.037586)"
     x="-26.742676"
     y="11.768555"
     id="text64"><tspan
       sodipodi:role="line"
       x="-26.742676"
       y="11.768555"
       id="tspan64"><tspan
         dx="0.000000"
         dy="0.000000"
         style="fill:#000000;font-size:13.000000px;font-style:normal;font-variant:normal;font-weight:700;font-stretch:Normal;font-family:Arial;"
         id="tspan63">0.6V</tspan></tspan></text>
  <path
     style="fill:none;stroke:#000000;stroke-width:1.000737px;stroke-linecap:round;stroke-linejoin:round;stroke-miterlimit:4;stroke-dasharray:none;stroke-opacity:1;"
     d="  M 40.029479,59.043482   L 32.023583,59.043482  "
     id="path64" />
  <text
     xml:space="preserve"
     style="font-size:13.000000px;font-style:normal;font-variant:normal;font-weight:700;font-stretch:Normal;line-height:125.000000%;letter-spacing:0px;word-spacing:0px;fill:#000000;fill-opacity:1;stroke:none;font-family:Arial;text-align:start;text-anchor:start;"
     transform="matrix(1.000000,-0.000000,0.000000,1.000000,32.023583,31.022846)"
     x="-26.742676"
     y="11.768555"
     id="text66"><tspan
       sodipodi:role="line"
       x="-26.742676"
       y="11.768555"
       id="tspan66"><tspan
         dx="0.000000"
         dy="0.000000"
         style="fill:#000000;font-size:13.000000px;font-style:normal;font-variant:normal;font-weight:700;font-stretch:Normal;font-family:Arial;"
         id="tspan65">0.8V</tspan></tspan></text>
  <path
     style="fill:none;stroke:#000000;stroke-width:1.000737px;stroke-linecap:round;stroke-linejoin:round;stroke-miterlimit:4;stroke-dasharray:none;stroke-opacity:1;"
     d="  M 40.029479,39.028742   L 32.023583,39.028742  "
     id="path66" />
  <text
     xml:space="preserve"
     style="font-size:13.000000px;font-style:normal;font-variant:normal;font-weight:700;font-stretch:Normal;line-height:125.000000%;letter-spacing:0px;word-spacing:0px;fill:#000000;fill-opacity:1;stroke:none;font-family:Arial;text-align:start;text-anchor:start;"
     transform="matrix(1.000000,-0.000000,0.000000,1.000000,32.023583,10.007370)"
     x="-26.742676"
     y="11.768555"
     id="text68"><tspan
       sodipodi:role="line"
       x="-26.742676"
       y="11.768555"
       id="tspan68"><tspan
         dx="0.000000"
         dy="0.000000"
         style="fill:#000000;font-size:13.000000px;font-style:normal;font-variant:normal;font-weight:700;font-stretch:Normal;font-family:Arial;"
         id="tspan67">1.0V</tspan></tspan></text>
  <path
     style="fill:none;stroke:#000000;stroke-width:1.000737px;stroke-linecap:round;stroke-linejoin:round;stroke-miterlimit:4;stroke-dasharray:none;stroke-opacity:1;"
     d="  M 40.029479,18.013266   L 32.023583,18.013266  "
     id="path68" />
  <path
     style="fill:none;stroke:#000000;stroke-width:1.000737px;stroke-linecap:round;stroke-linejoin:round;stroke-miterlimit:4;stroke-dasharray:none;stroke-opacity:1;"
     d="  M 40.029479,18.013266   L 1002.7385,18.013266   L 1002.7385,225.16582   L 40.029479,225.16582   L 40.029479,18.013266  "
     id="path69" />
  <text
     xml:space="preserve"
     style="font-size:13.000000px;font-style:normal;font-variant:normal;font-weight:700;font-stretch:Normal;line-height:125.000000%;letter-spacing:0px;word-spacing:0px;fill:#000000;fill-opacity:1;stroke:none;font-family:Arial;text-align:start;text-anchor:start;"
     transform="matrix(1.000000,-0.000000,0.000000,1.000000,521.383965,228.168031)"
     x="-16.250000"
     y="11.768555"
     id="text70"><tspan
       sodipodi:role="line"
       x="-16.250000"
       y="11.768555"
       id="tspan70"><tspan
         dx="0.000000"
         dy="0.000000"
         style="fill:#000000;font-size:13.000000px;font-style:normal;font-variant:normal;font-weight:700;font-stretch:Normal;font-family:Arial;"
         id="tspan69">V(vo)</tspan></tspan></text>
  <path
     style="fill:none;stroke:#000000;stroke-width:1.000737px;stroke-linecap:round;stroke-linejoin:round;stroke-miterlimit:4;stroke-dasharray:none;stroke-opacity:1;"
     d="  M 40.029479,437.32206   L 40.029479,435.32058   L 41.030216,433.31911   L 41.030216,428.31543   L 42.030953,424.31248   L 43.03169,419.30879   L 44.032427,413.30437   L 45.033164,408.30069   L 46.033901,402.29626   L 47.034638,397.29258   L 48.035375,392.28889   L 49.036112,386.28447   L 50.036849,381.28079   L 51.037586,376.2771   L 51.037586,370.27268   L 52.038323,365.269   L 53.03906,360.26531   L 54.039797,355.26163   L 55.040534,350.25794   L 56.041271,345.25426   L 57.042008,340.25057   L 58.042745,336.24762   L 59.043482,331.24394   L 60.044219,327.24099   L 61.044956,322.23731   L 62.045693,318.23436   L 63.04643,314.23141   L 64.047167,310.22846   L 65.047903,306.22551   L 66.04864,302.22257   L 67.049377,298.21962   L 67.049377,295.21741   L 68.050114,291.21446   L 69.050851,288.21225   L 71.052325,282.20783   L 73.053799,276.20341   L 75.055273,271.19972   L 77.056747,267.19677   L 79.058221,263.19382   L 82.060432,259.19088   L 84.061906,257.1894   L 86.06338,256.18867   L 88.064854,255.18793   L 90.066328,255.18793   L 92.067802,257.1894   L 94.069276,259.19088   L 96.07075,261.19235   L 97.071487,263.19382   L 98.072224,265.1953   L 99.072961,267.19677   L 101.07443,271.19972   L 103.07591,276.20341   L 105.07738,282.20783   L 107.07886,288.21225   L 108.07959,291.21446   L 109.08033,295.21741   L 110.08107,298.21962   L 111.0818,302.22257   L 112.08254,306.22551   L 113.08328,310.22846   L 113.08328,314.23141   L 114.08402,318.23436   L 115.08475,322.23731   L 116.08549,327.24099   L 117.08623,331.24394   L 118.08696,336.24762   L 119.0877,340.25057   L 120.08844,345.25426   L 121.08917,350.25794   L 122.08991,355.26163   L 123.09065,360.26531   L 124.09139,365.269   L 125.09212,370.27268   L 126.09286,375.27637   L 127.0936,381.28079   L 128.09433,386.28447   L 129.09507,391.28816   L 129.09507,397.29258   L 130.09581,402.29626   L 131.09654,408.30069   L 132.09728,413.30437   L 133.09802,419.30879   L 134.09875,424.31248   L 135.09949,430.3169   L 136.10023,435.32058   L 137.10097,439.32353   L 137.10097,433.31911   L 138.1017,429.31616   L 138.1017,425.31322   L 139.10244,423.31174   L 139.10244,419.30879   L 140.10318,414.30511   L 141.10391,408.30069   L 142.10465,403.297   L 143.10539,397.29258   L 144.10612,392.28889   L 145.10686,387.28521   L 146.1076,381.28079   L 147.10834,376.2771   L 148.10907,371.27342   L 149.10981,365.269   L 150.11055,360.26531   L 150.11055,355.26163   L 151.11128,350.25794   L 152.11202,346.25499   L 153.11276,341.25131   L 154.11349,336.24762   L 155.11423,331.24394   L 156.11497,327.24099   L 157.11571,323.23804   L 158.11644,318.23436   L 159.11718,314.23141   L 160.11792,310.22846   L 161.11865,306.22551   L 162.11939,302.22257   L 163.12013,299.22036   L 164.12086,295.21741   L 165.1216,288.21225   L 167.12308,282.20783   L 169.12455,277.20414   L 171.12602,272.20046   L 173.1275,267.19677   L 175.12897,263.19382   L 177.13044,260.19161   L 179.13192,258.19014   L 181.13339,256.18867   L 184.1356,255.18793   L 186.13708,255.18793   L 188.13855,256.18867   L 190.14003,258.19014   L 192.1415,260.19161   L 194.14297,263.19382   L 196.14445,267.19677   L 197.14518,271.19972   L 199.14666,276.20341   L 201.14813,282.20783   L 203.14961,288.21225   L 204.15034,291.21446   L 205.15108,294.21667   L 206.15182,298.21962   L 207.15255,302.22257   L 208.15329,305.22478   L 209.15403,309.22773   L 210.15477,313.23067   L 211.1555,317.23362   L 212.15624,322.23731   L 212.15624,326.24025   L 213.15698,331.24394   L 214.15771,335.24689   L 215.15845,340.25057   L 216.15919,345.25426   L 217.15992,349.2572   L 218.16066,354.26089   L 219.1614,359.26457   L 220.16213,364.26826   L 221.16287,370.27268   L 222.16361,375.27637   L 223.16435,380.28005   L 224.16508,385.28374   L 225.16582,391.28816   L 226.16656,396.29184   L 227.16729,402.29626   L 227.16729,407.29995   L 228.16803,413.30437   L 229.16877,418.30806   L 230.1695,424.31248   L 231.17024,429.31616   L 232.17098,433.31911   L 233.17172,431.31764   L 234.17245,426.31395   L 235.17319,424.31248   L 235.17319,420.30953   L 236.17393,415.30585   L 237.17466,409.30142   L 238.1754,404.29774   L 239.17614,398.29332   L 240.17687,393.28963   L 241.17761,387.28521   L 242.17835,382.28153   L 243.17909,377.27784   L 244.17982,371.27342   L 245.18056,366.26973   L 246.1813,361.26605   L 247.18203,356.26236   L 247.18203,351.25868   L 248.18277,346.25499   L 249.18351,341.25131   L 250.18424,337.24836   L 251.18498,332.24468   L 252.18572,328.24173   L 253.18646,323.23804   L 254.18719,319.2351   L 255.18793,315.23215   L 256.18867,311.2292   L 257.1894,307.22625   L 258.19014,303.2233   L 259.19088,299.22036   L 260.19161,296.21815   L 262.19309,289.21299   L 263.19382,283.20856   L 265.1953,277.20414   L 267.19677,272.20046   L 269.19825,268.19751   L 271.19972,264.19456   L 274.20193,259.19088   L 277.20414,256.18867   L 279.20562,255.18793   L 281.20709,255.18793   L 283.20856,256.18867   L 285.21004,257.1894   L 287.21151,259.19088   L 289.21299,261.19235   L 290.21372,263.19382   L 291.21446,265.1953   L 292.2152,267.19677   L 293.21593,271.19972   L 295.21741,276.20341   L 297.21888,281.20709   L 299.22036,287.21151   L 300.22109,291.21446   L 301.22183,294.21667   L 302.22257,297.21888   L 303.2233,301.22183   L 304.22404,305.22478   L 305.22478,309.22773   L 306.22551,313.23067   L 307.22625,317.23362   L 308.22699,321.23657   L 309.22773,326.24025   L 309.22773,330.2432   L 310.22846,335.24689   L 311.2292,339.24984   L 312.22994,344.25352   L 313.23067,349.2572   L 314.23141,354.26089   L 315.23215,359.26457   L 316.23288,364.26826   L 317.23362,369.27194   L 318.23436,374.27563   L 319.2351,379.27931   L 320.23583,385.28374   L 321.23657,390.28742   L 322.23731,396.29184   L 323.23804,401.29553   L 324.23878,407.29995   L 324.23878,412.30363   L 325.23952,418.30806   L 326.24025,423.31174   L 327.24099,429.31616   L 328.24173,434.31985   L 329.24247,438.3228   L 329.24247,440.32427   L 330.2432,427.31469   L 331.24394,425.31322   L 331.24394,423.31174   L 332.24468,419.30879   L 333.24541,414.30511   L 333.24541,408.30069   L 334.24615,403.297   L 335.24689,397.29258   L 336.24762,392.28889   L 337.24836,386.28447   L 338.2491,381.28079   L 339.24984,376.2771   L 340.25057,371.27342   L 341.25131,365.269   L 342.25205,360.26531   L 343.25278,355.26163   L 344.25352,350.25794   L 345.25426,345.25426   L 346.25499,341.25131   L 347.25573,336.24762   L 348.25647,331.24394   L 349.2572,327.24099   L 349.2572,322.23731   L 350.25794,318.23436   L 351.25868,314.23141   L 352.25942,310.22846   L 353.26015,306.22551   L 354.26089,302.22257   L 355.26163,299.22036   L 356.26236,295.21741   L 358.26384,288.21225   L 360.26531,282.20783   L 362.26679,276.20341   L 364.26826,272.20046   L 365.269,267.19677   L 367.27047,263.19382   L 369.27194,260.19161   L 371.27342,258.19014   L 373.27489,256.18867   L 375.27637,255.18793   L 377.27784,255.18793   L 380.28005,256.18867   L 383.28226,259.19088   L 385.28374,262.19309   L 387.28521,265.1953   L 388.28595,267.19677   L 390.28742,271.19972   L 392.28889,276.20341   L 394.29037,282.20783   L 395.29111,285.21004   L 395.29111,288.21225   L 396.29184,291.21446   L 397.29258,294.21667   L 398.29332,298.21962   L 399.29405,302.22257   L 400.29479,305.22478   L 401.29553,309.22773   L 402.29626,313.23067   L 403.297,317.23362   L 404.29774,322.23731   L 405.29848,326.24025   L 406.29921,331.24394   L 407.29995,335.24689   L 408.30069,340.25057   L 409.30142,345.25426   L 410.30216,349.2572   L 411.3029,354.26089   L 411.3029,359.26457   L 412.30363,365.269   L 413.30437,370.27268   L 414.30511,375.27637   L 415.30585,380.28005   L 416.30658,385.28374   L 417.30732,391.28816   L 418.30806,396.29184   L 419.30879,402.29626   L 420.30953,407.29995   L 421.31027,413.30437   L 422.311,418.30806   L 423.31174,424.31248   L 424.31248,429.31616   L 425.31322,433.31911   L 426.31395,427.31469   L 427.31469,424.31248   L 428.31543,420.30953   L 429.31616,415.30585   L 429.31616,409.30142   L 430.3169,404.29774   L 431.31764,398.29332   L 432.31837,393.28963   L 433.31911,387.28521   L 434.31985,382.28153   L 435.32058,377.27784   L 436.32132,372.27416   L 437.32206,366.26973   L 438.3228,361.26605   L 439.32353,356.26236   L 440.32427,351.25868   L 441.32501,346.25499   L 442.32574,342.25205   L 443.32648,337.24836   L 444.32722,332.24468   L 445.32795,328.24173   L 445.32795,323.23804   L 446.32869,319.2351   L 447.32943,315.23215   L 448.33017,311.2292   L 449.3309,307.22625   L 450.33164,303.2233   L 452.33311,296.21815   L 454.33459,289.21299   L 456.33606,283.20856   L 458.33754,277.20414   L 460.33901,272.20046   L 461.33975,268.19751   L 463.34122,264.19456   L 466.34343,259.19088   L 469.34564,256.18867   L 471.34712,255.18793   L 473.34859,255.18793   L 475.35006,255.18793   L 477.35154,257.1894   L 479.35301,259.19088   L 481.35449,261.19235   L 482.35522,263.19382   L 483.35596,265.1953   L 484.3567,267.19677   L 486.35817,271.19972   L 488.35964,276.20341   L 490.36112,281.20709   L 492.36259,287.21151   L 493.36333,294.21667   L 494.36407,297.21888   L 495.3648,301.22183   L 496.36554,305.22478   L 497.36628,309.22773   L 498.36701,313.23067   L 499.36775,317.23362   L 500.36849,321.23657   L 501.36923,325.23952   L 502.36996,330.2432   L 503.3707,335.24689   L 504.37144,339.24984   L 505.37217,344.25352   L 506.37291,349.2572   L 507.37365,354.26089   L 507.37365,359.26457   L 508.37438,364.26826   L 509.37512,369.27194   L 510.37586,374.27563   L 511.3766,379.27931   L 512.37733,385.28374   L 513.37807,390.28742   L 514.37881,395.29111   L 515.37954,401.29553   L 516.38028,406.29921   L 517.38102,412.30363   L 518.38175,417.30732   L 519.38249,423.31174   L 520.38323,429.31616   L 521.38396,434.31985   L 521.38396,437.32206   L 522.3847,440.32427   L 522.3847,430.3169   L 523.38544,428.31543   L 523.38544,424.31248   L 524.38618,420.30953   L 525.38691,414.30511   L 526.38765,408.30069   L 527.38839,403.297   L 528.38912,397.29258   L 529.38986,392.28889   L 530.3906,387.28521   L 531.39133,381.28079   L 531.39133,376.2771   L 532.39207,371.27342   L 533.39281,366.26973   L 534.39355,360.26531   L 535.39428,355.26163   L 536.39502,350.25794   L 537.39576,346.25499   L 538.39649,341.25131   L 539.39723,336.24762   L 540.39797,332.24468   L 541.3987,327.24099   L 542.39944,323.23804   L 543.40018,318.23436   L 544.40092,314.23141   L 545.40165,310.22846   L 546.40239,306.22551   L 547.40313,302.22257   L 547.40313,299.22036   L 548.40386,295.21741   L 550.40534,288.21225   L 552.40681,282.20783   L 554.40829,277.20414   L 556.40976,272.20046   L 558.41123,267.19677   L 560.41271,263.19382   L 562.41418,260.19161   L 563.41492,258.19014   L 565.41639,256.18867   L 567.41787,255.18793   L 569.41934,255.18793   L 571.42081,255.18793   L 573.42229,256.18867   L 575.42376,258.19014   L 577.42524,260.19161   L 578.42597,263.19382   L 580.42745,267.19677   L 582.42892,271.19972   L 584.43039,276.20341   L 586.43187,281.20709   L 587.43261,284.2093   L 588.43334,288.21225   L 589.43408,291.21446   L 590.43482,294.21667   L 591.43555,298.21962   L 592.43629,301.22183   L 593.43703,305.22478   L 593.43703,309.22773   L 594.43776,313.23067   L 595.4385,317.23362   L 596.43924,322.23731   L 597.43998,326.24025   L 598.44071,330.2432   L 599.44145,335.24689   L 600.44219,340.25057   L 601.44292,344.25352   L 602.44366,349.2572   L 603.4444,354.26089   L 604.44513,359.26457   L 605.44587,364.26826   L 606.44661,369.27194   L 607.44734,375.27637   L 608.44808,380.28005   L 609.44882,385.28374   L 609.44882,391.28816   L 610.44956,396.29184   L 611.45029,402.29626   L 612.45103,407.29995   L 613.45177,412.30363   L 614.4525,418.30806   L 615.45324,423.31174   L 616.45398,429.31616   L 617.45471,433.31911   L 618.45545,430.3169   L 619.45619,424.31248   L 620.45693,420.30953   L 621.45766,414.30511   L 622.4584,409.30142   L 623.45914,403.297   L 624.45987,398.29332   L 625.46061,392.28889   L 626.46135,387.28521   L 627.46208,382.28153   L 628.46282,376.2771   L 629.46356,371.27342   L 629.46356,366.26973   L 630.4643,361.26605   L 631.46503,356.26236   L 632.46577,351.25868   L 633.46651,346.25499   L 634.46724,341.25131   L 635.46798,336.24762   L 636.46872,332.24468   L 637.46945,327.24099   L 638.47019,323.23804   L 639.47093,319.2351   L 640.47167,314.23141   L 641.4724,310.22846   L 642.47314,306.22551   L 643.47388,303.2233   L 644.47461,299.22036   L 645.47535,295.21741   L 645.47535,292.2152   L 646.47609,289.21299   L 647.47682,285.21004   L 648.47756,282.20783   L 650.47903,277.20414   L 652.48051,272.20046   L 654.48198,267.19677   L 657.48419,262.19309   L 660.4864,258.19014   L 662.48788,256.18867   L 664.48935,255.18793   L 666.49083,255.18793   L 668.4923,255.18793   L 670.49377,257.1894   L 672.49525,259.19088   L 674.49672,261.19235   L 675.49746,263.19382   L 676.4982,265.1953   L 678.49967,271.19972   L 680.50114,276.20341   L 682.50262,281.20709   L 683.50336,284.2093   L 684.50409,288.21225   L 685.50483,291.21446   L 686.50557,294.21667   L 687.5063,298.21962   L 688.50704,301.22183   L 689.50778,305.22478   L 690.50851,309.22773   L 691.50925,313.23067   L 692.50999,317.23362   L 692.50999,322.23731   L 693.51072,326.24025   L 694.51146,330.2432   L 695.5122,335.24689   L 696.51294,340.25057   L 697.51367,344.25352   L 698.51441,349.2572   L 699.51515,354.26089   L 700.51588,359.26457   L 701.51662,364.26826   L 702.51736,369.27194   L 703.51809,375.27637   L 704.51883,380.28005   L 705.51957,385.28374   L 706.52031,391.28816   L 707.52104,396.29184   L 707.52104,401.29553   L 708.52178,407.29995   L 709.52252,412.30363   L 710.52325,418.30806   L 711.52399,423.31174   L 712.52473,429.31616   L 713.52546,435.32058   L 714.5262,438.3228   L 714.5262,440.32427   L 715.52694,437.32206   L 715.52694,425.31322   L 716.52768,422.311   L 717.52841,416.30658   L 718.52915,411.3029   L 719.52989,405.29848   L 720.53062,400.29479   L 721.53136,394.29037   L 722.5321,389.28668   L 723.53283,384.283   L 723.53283,378.27858   L 724.53357,373.27489   L 725.53431,368.27121   L 726.53505,363.26752   L 727.53578,358.26384   L 728.53652,353.26015   L 729.53726,348.25647   L 730.53799,343.25278   L 731.53873,338.2491   L 732.53947,333.24541   L 733.5402,329.24247   L 734.54094,324.23878   L 735.54168,320.23583   L 736.54241,316.23288   L 737.54315,312.22994   L 738.54389,308.22699   L 739.54463,304.22404   L 739.54463,300.22109   L 740.54536,297.21888   L 741.5461,293.21593   L 742.54684,290.21372   L 743.54757,286.21078   L 744.54831,283.20856   L 745.54905,280.20635   L 746.54978,278.20488   L 747.55052,275.20267   L 748.55126,273.20119   L 749.552,270.19898   L 751.55347,266.19604   L 753.55494,263.19382   L 754.55568,260.19161   L 756.55715,257.1894   L 759.55937,255.18793   L 762.56158,255.18793   L 765.56379,256.18867   L 768.566,258.19014   L 770.56747,261.19235   L 771.56821,264.19456   L 773.56968,268.19751   L 775.57116,272.20046   L 776.57189,275.20267   L 777.57263,277.20414   L 778.57337,280.20635   L 779.5741,283.20856   L 780.57484,286.21078   L 781.57558,289.21299   L 782.57632,293.21593   L 783.57705,296.21815   L 784.57779,300.22109   L 785.57853,304.22404   L 785.57853,307.22625   L 786.57926,311.2292   L 787.58,316.23288   L 788.58074,320.23583   L 789.58147,324.23878   L 790.58221,329.24247   L 791.58295,333.24541   L 792.58369,338.2491   L 793.58442,342.25205   L 794.58516,347.25573   L 795.5859,352.25942   L 796.58663,357.2631   L 797.58737,362.26679   L 798.58811,367.27047   L 799.58884,372.27416   L 800.58958,378.27858   L 801.59032,383.28226   L 801.59032,388.28595   L 802.59106,394.29037   L 803.59179,399.29405   L 804.59253,405.29848   L 805.59327,410.30216   L 806.594,416.30658   L 807.59474,421.31027   L 808.59548,427.31469   L 809.59621,432.31837   L 810.59695,434.31985   L 810.59695,432.31837   L 811.59769,430.3169   L 811.59769,426.31395   L 812.59843,422.311   L 813.59916,419.30879   L 814.5999,413.30437   L 815.60064,408.30069   L 815.60064,402.29626   L 816.60137,397.29258   L 817.60211,391.28816   L 818.60285,386.28447   L 819.60358,381.28079   L 820.60432,375.27637   L 821.60506,370.27268   L 822.60579,365.269   L 823.60653,360.26531   L 824.60727,355.26163   L 825.60801,350.25794   L 826.60874,345.25426   L 827.60948,340.25057   L 828.61022,336.24762   L 829.61095,331.24394   L 830.61169,327.24099   L 831.61243,322.23731   L 831.61243,318.23436   L 833.6139,310.22846   L 835.61538,302.22257   L 837.61685,295.21741   L 839.61832,288.21225   L 841.6198,282.20783   L 843.62127,276.20341   L 845.62275,271.19972   L 846.62348,267.19677   L 848.62496,263.19382   L 850.62643,260.19161   L 853.62864,257.1894   L 856.63085,255.18793   L 858.63233,255.18793   L 860.6338,255.18793   L 862.63527,256.18867   L 863.63601,258.19014   L 865.63748,260.19161   L 866.63822,262.19309   L 868.6397,265.1953   L 869.64043,267.19677   L 871.64191,271.19972   L 873.64338,276.20341   L 875.64485,282.20783   L 877.64633,288.21225   L 878.64707,295.21741   L 879.6478,298.21962   L 880.64854,302.22257   L 881.64928,306.22551   L 882.65001,310.22846   L 883.65075,314.23141   L 884.65149,318.23436   L 885.65222,322.23731   L 886.65296,327.24099   L 887.6537,331.24394   L 888.65444,336.24762   L 889.65517,340.25057   L 890.65591,345.25426   L 891.65665,350.25794   L 892.65738,355.26163   L 893.65812,360.26531   L 893.65812,365.269   L 894.65886,370.27268   L 895.65959,375.27637   L 896.66033,381.28079   L 897.66107,386.28447   L 898.66181,391.28816   L 899.66254,397.29258   L 900.66328,402.29626   L 901.66402,408.30069   L 902.66475,413.30437   L 903.66549,419.30879   L 904.66623,424.31248   L 905.66696,430.3169   L 906.6677,436.32132   L 906.6677,439.32353   L 907.66844,428.31543   L 908.66917,421.31027   L 909.66991,417.30732   L 910.67065,411.3029   L 911.67139,406.29921   L 912.67212,400.29479   L 913.67286,395.29111   L 914.6736,390.28742   L 915.67433,384.283   L 916.67507,379.27931   L 917.67581,374.27563   L 918.67654,368.27121   L 919.67728,363.26752   L 920.67802,358.26384   L 920.67802,353.26015   L 921.67876,348.25647   L 922.67949,343.25278   L 923.68023,339.24984   L 924.68097,334.24615   L 925.6817,330.2432   L 926.68244,325.23952   L 927.68318,321.23657   L 928.68391,316.23288   L 929.68465,312.22994   L 930.68539,308.22699   L 931.68613,304.22404   L 932.68686,301.22183   L 933.6876,297.21888   L 934.68834,294.21667   L 935.68907,287.21151   L 937.69055,281.20709   L 939.69202,275.20267   L 941.6935,271.19972   L 943.69497,266.19604   L 945.69644,263.19382   L 947.69792,260.19161   L 949.69939,258.19014   L 951.70086,256.18867   L 954.70308,255.18793   L 956.70455,255.18793   L 958.70602,256.18867   L 960.7075,258.19014   L 962.70897,261.19235   L 964.71045,264.19456   L 966.71192,268.19751   L 967.71266,272.20046   L 969.71413,277.20414   L 971.7156,283.20856   L 972.71634,286.21078   L 973.71708,289.21299   L 974.71782,292.2152   L 975.71855,296.21815   L 976.71929,299.22036   L 977.72003,303.2233   L 978.72076,307.22625   L 979.7215,311.2292   L 980.72224,315.23215   L 981.72297,319.2351   L 982.72371,324.23878   L 982.72371,328.24173   L 983.72445,332.24468   L 984.72519,337.24836   L 985.72592,342.25205   L 986.72666,347.25573   L 987.7274,352.25942   L 988.72813,356.26236   L 989.72887,362.26679   L 990.72961,367.27047   L 991.73034,372.27416   L 992.73108,377.27784   L 993.73182,382.28153   L 994.73255,388.28595   L 995.73329,393.28963   L 996.73403,398.29332   L 997.73477,404.29774   L 997.73477,409.30142   L 998.7355,415.30585   L 999.73624,420.30953   L 1000.737,426.31395   L 1001.7377,431.31764   L 1002.7385,435.32058  "
     id="path70" />
  <text
     xml:space="preserve"
     style="font-size:13.000000px;font-style:normal;font-variant:normal;font-weight:700;font-stretch:Normal;line-height:125.000000%;letter-spacing:0px;word-spacing:0px;fill:#000000;fill-opacity:1;stroke:none;font-family:Arial;text-align:start;text-anchor:start;"
     transform="matrix(1.000000,-0.000000,0.000000,1.000000,521.383965,0.000000)"
     x="-14.085449"
     y="11.768555"
     id="text72"><tspan
       sodipodi:role="line"
       x="-14.085449"
       y="11.768555"
       id="tspan72"><tspan
         dx="0.000000"
         dy="0.000000"
         style="fill:#000000;font-size:13.000000px;font-style:normal;font-variant:normal;font-weight:700;font-stretch:Normal;font-family:Arial;"
         id="tspan71">V(vi)</tspan></tspan></text>
  <path
     style="fill:none;stroke:#000000;stroke-width:1.000737px;stroke-linecap:round;stroke-linejoin:round;stroke-miterlimit:4;stroke-dasharray:none;stroke-opacity:1;"
     d="  M 40.029479,121.08917   L 41.030216,119.0877   L 41.030216,117.08623   L 42.030953,114.08402   L 43.03169,112.08254   L 44.032427,109.08033   L 45.033164,106.07812   L 46.033901,103.07591   L 47.034638,100.0737   L 48.035375,97.071487   L 49.036112,94.069276   L 50.036849,91.067065   L 51.037586,88.064854   L 51.037586,85.062643   L 52.038323,83.061169   L 53.03906,80.058958   L 54.039797,77.056747   L 55.040534,74.054536   L 56.041271,72.053062   L 57.042008,69.050851   L 58.042745,67.049377   L 59.043482,64.047167   L 60.044219,62.045693   L 61.044956,59.043482   L 62.045693,57.042008   L 63.04643,55.040534   L 64.047167,53.03906   L 65.047903,50.036849   L 66.04864,48.035375   L 67.049377,46.033901   L 67.049377,44.032427   L 69.050851,41.030216   L 71.052325,38.028005   L 73.053799,35.025794   L 75.055273,32.023583   L 77.056747,29.021372   L 79.058221,27.019898   L 82.060432,25.018424   L 84.061906,24.017687   L 86.06338,23.01695   L 88.064854,23.01695   L 90.066328,23.01695   L 92.067802,24.017687   L 94.069276,25.018424   L 96.07075,27.019898   L 98.072224,28.020635   L 99.072961,30.022109   L 101.07443,32.023583   L 103.07591,35.025794   L 105.07738,38.028005   L 107.07886,41.030216   L 108.07959,43.03169   L 109.08033,45.033164   L 110.08107,47.034638   L 111.0818,49.036112   L 112.08254,51.037586   L 113.08328,53.03906   L 113.08328,55.040534   L 114.08402,57.042008   L 115.08475,60.044219   L 116.08549,62.045693   L 117.08623,64.047167   L 118.08696,67.049377   L 119.0877,69.050851   L 120.08844,72.053062   L 121.08917,75.055273   L 122.08991,77.056747   L 123.09065,80.058958   L 124.09139,83.061169   L 125.09212,86.06338   L 126.09286,88.064854   L 127.0936,91.067065   L 128.09433,94.069276   L 129.09507,97.071487   L 129.09507,100.0737   L 130.09581,103.07591   L 131.09654,106.07812   L 132.09728,109.08033   L 133.09802,112.08254   L 134.09875,115.08475   L 135.09949,118.08696   L 136.10023,121.08917   L 137.10097,123.09065   L 137.10097,126.09286   L 138.1017,128.09433   L 139.10244,131.09654   L 140.10318,134.09875   L 141.10391,137.10097   L 142.10465,140.10318   L 143.10539,143.10539   L 144.10612,146.1076   L 145.10686,149.10981   L 146.1076,152.11202   L 147.10834,155.11423   L 148.10907,157.11571   L 149.10981,160.11792   L 150.11055,163.12013   L 150.11055,166.12234   L 151.11128,168.12381   L 152.11202,171.12602   L 153.11276,174.12823   L 154.11349,176.12971   L 155.11423,179.13192   L 156.11497,181.13339   L 157.11571,183.13487   L 158.11644,186.13708   L 159.11718,188.13855   L 160.11792,190.14003   L 161.11865,192.1415   L 162.11939,194.14297   L 163.12013,196.14445   L 164.12086,198.14592   L 165.1216,202.14887   L 167.12308,205.15108   L 169.12455,208.15329   L 171.12602,211.1555   L 173.1275,213.15698   L 175.12897,215.15845   L 177.13044,217.15992   L 179.13192,218.16066   L 181.13339,219.1614   L 184.1356,220.16213   L 186.13708,220.16213   L 188.13855,219.1614   L 190.14003,218.16066   L 192.1415,217.15992   L 194.14297,215.15845   L 196.14445,213.15698   L 197.14518,211.1555   L 199.14666,208.15329   L 201.14813,205.15108   L 203.14961,202.14887   L 204.15034,200.1474   L 206.15182,197.14518   L 207.15255,195.14371   L 208.15329,193.14224   L 209.15403,190.14003   L 210.15477,188.13855   L 211.1555,186.13708   L 212.15624,184.1356   L 212.15624,181.13339   L 213.15698,179.13192   L 214.15771,176.12971   L 215.15845,174.12823   L 216.15919,171.12602   L 217.15992,169.12455   L 218.16066,166.12234   L 219.1614,163.12013   L 220.16213,160.11792   L 221.16287,158.11644   L 222.16361,155.11423   L 223.16435,152.11202   L 224.16508,149.10981   L 225.16582,146.1076   L 226.16656,143.10539   L 227.16729,140.10318   L 227.16729,137.10097   L 228.16803,134.09875   L 229.16877,131.09654   L 230.1695,128.09433   L 231.17024,125.09212   L 232.17098,122.08991   L 233.17172,120.08844   L 233.17172,118.08696   L 234.17245,115.08475   L 235.17319,112.08254   L 236.17393,109.08033   L 237.17466,106.07812   L 238.1754,103.07591   L 239.17614,100.0737   L 240.17687,97.071487   L 241.17761,95.070013   L 242.17835,92.067802   L 243.17909,89.065591   L 244.17982,86.06338   L 245.18056,83.061169   L 246.1813,80.058958   L 247.18203,78.057484   L 247.18203,75.055273   L 248.18277,72.053062   L 249.18351,70.051588   L 250.18424,67.049377   L 251.18498,65.047903   L 252.18572,62.045693   L 253.18646,60.044219   L 254.18719,58.042745   L 255.18793,55.040534   L 256.18867,53.03906   L 257.1894,51.037586   L 258.19014,49.036112   L 259.19088,47.034638   L 260.19161,45.033164   L 262.19309,41.030216   L 263.19382,38.028005   L 265.1953,35.025794   L 267.19677,32.023583   L 269.19825,30.022109   L 271.19972,28.020635   L 274.20193,25.018424   L 277.20414,24.017687   L 279.20562,23.01695   L 281.20709,23.01695   L 283.20856,23.01695   L 285.21004,24.017687   L 287.21151,25.018424   L 289.21299,27.019898   L 291.21446,28.020635   L 293.21593,32.023583   L 295.21741,34.025057   L 297.21888,37.027268   L 299.22036,41.030216   L 301.22183,44.032427   L 302.22257,46.033901   L 303.2233,48.035375   L 304.22404,50.036849   L 305.22478,52.038323   L 306.22551,54.039797   L 307.22625,57.042008   L 308.22699,59.043482   L 309.22773,61.044956   L 309.22773,64.047167   L 310.22846,66.04864   L 311.2292,69.050851   L 312.22994,71.052325   L 313.23067,74.054536   L 314.23141,77.056747   L 315.23215,79.058221   L 316.23288,82.060432   L 317.23362,85.062643   L 318.23436,88.064854   L 319.2351,91.067065   L 320.23583,94.069276   L 321.23657,96.07075   L 322.23731,99.072961   L 323.23804,102.07517   L 324.23878,105.07738   L 324.23878,108.07959   L 325.23952,111.0818   L 326.24025,114.08402   L 327.24099,117.08623   L 328.24173,120.08844   L 329.24247,122.08991   L 330.2432,125.09212   L 330.2432,127.0936   L 331.24394,129.09507   L 332.24468,131.09654   L 333.24541,134.09875   L 333.24541,137.10097   L 334.24615,140.10318   L 335.24689,143.10539   L 336.24762,146.1076   L 337.24836,149.10981   L 338.2491,152.11202   L 339.24984,155.11423   L 340.25057,157.11571   L 341.25131,160.11792   L 342.25205,163.12013   L 343.25278,166.12234   L 344.25352,168.12381   L 345.25426,171.12602   L 346.25499,174.12823   L 347.25573,176.12971   L 348.25647,179.13192   L 349.2572,181.13339   L 349.2572,184.1356   L 350.25794,186.13708   L 351.25868,188.13855   L 352.25942,190.14003   L 353.26015,192.1415   L 354.26089,195.14371   L 356.26236,198.14592   L 358.26384,202.14887   L 360.26531,205.15108   L 362.26679,208.15329   L 364.26826,211.1555   L 365.269,213.15698   L 367.27047,215.15845   L 369.27194,217.15992   L 371.27342,218.16066   L 373.27489,219.1614   L 375.27637,220.16213   L 377.27784,220.16213   L 380.28005,220.16213   L 383.28226,218.16066   L 385.28374,216.15919   L 387.28521,215.15845   L 388.28595,213.15698   L 390.28742,211.1555   L 392.28889,208.15329   L 394.29037,205.15108   L 395.29111,202.14887   L 396.29184,200.1474   L 397.29258,198.14592   L 399.29405,195.14371   L 400.29479,193.14224   L 401.29553,190.14003   L 402.29626,188.13855   L 403.297,186.13708   L 404.29774,184.1356   L 405.29848,181.13339   L 406.29921,179.13192   L 407.29995,176.12971   L 408.30069,174.12823   L 409.30142,171.12602   L 410.30216,169.12455   L 411.3029,166.12234   L 411.3029,163.12013   L 412.30363,160.11792   L 413.30437,158.11644   L 414.30511,155.11423   L 415.30585,152.11202   L 416.30658,149.10981   L 417.30732,146.1076   L 418.30806,143.10539   L 419.30879,140.10318   L 420.30953,137.10097   L 421.31027,134.09875   L 422.311,131.09654   L 423.31174,128.09433   L 424.31248,125.09212   L 425.31322,122.08991   L 425.31322,120.08844   L 426.31395,116.08549   L 427.31469,114.08402   L 428.31543,112.08254   L 429.31616,109.08033   L 429.31616,106.07812   L 430.3169,103.07591   L 431.31764,100.0737   L 432.31837,98.072224   L 433.31911,95.070013   L 434.31985,92.067802   L 435.32058,89.065591   L 436.32132,86.06338   L 437.32206,83.061169   L 438.3228,80.058958   L 439.32353,78.057484   L 440.32427,75.055273   L 441.32501,72.053062   L 442.32574,70.051588   L 443.32648,67.049377   L 444.32722,65.047903   L 445.32795,62.045693   L 445.32795,60.044219   L 446.32869,58.042745   L 447.32943,55.040534   L 448.33017,53.03906   L 449.3309,51.037586   L 450.33164,49.036112   L 452.33311,45.033164   L 454.33459,41.030216   L 456.33606,38.028005   L 458.33754,35.025794   L 460.33901,32.023583   L 461.33975,30.022109   L 463.34122,28.020635   L 466.34343,25.018424   L 469.34564,24.017687   L 471.34712,23.01695   L 473.34859,23.01695   L 475.35006,23.01695   L 477.35154,24.017687   L 479.35301,25.018424   L 481.35449,26.019161   L 483.35596,28.020635   L 486.35817,32.023583   L 488.35964,34.025057   L 490.36112,37.027268   L 492.36259,41.030216   L 493.36333,44.032427   L 494.36407,46.033901   L 495.3648,48.035375   L 496.36554,50.036849   L 497.36628,52.038323   L 498.36701,54.039797   L 499.36775,57.042008   L 500.36849,59.043482   L 501.36923,61.044956   L 502.36996,64.047167   L 503.3707,66.04864   L 504.37144,69.050851   L 505.37217,71.052325   L 506.37291,74.054536   L 507.37365,77.056747   L 507.37365,79.058221   L 508.37438,82.060432   L 509.37512,85.062643   L 510.37586,88.064854   L 511.3766,91.067065   L 512.37733,93.068539   L 513.37807,96.07075   L 514.37881,99.072961   L 515.37954,102.07517   L 516.38028,105.07738   L 517.38102,108.07959   L 518.38175,111.0818   L 519.38249,114.08402   L 520.38323,117.08623   L 521.38396,120.08844   L 521.38396,122.08991   L 522.3847,126.09286   L 523.38544,129.09507   L 524.38618,131.09654   L 525.38691,134.09875   L 526.38765,137.10097   L 527.38839,140.10318   L 528.38912,143.10539   L 529.38986,146.1076   L 530.3906,149.10981   L 531.39133,152.11202   L 531.39133,155.11423   L 532.39207,157.11571   L 533.39281,160.11792   L 534.39355,163.12013   L 535.39428,166.12234   L 536.39502,168.12381   L 537.39576,171.12602   L 538.39649,174.12823   L 539.39723,176.12971   L 540.39797,179.13192   L 541.3987,181.13339   L 542.39944,183.13487   L 543.40018,186.13708   L 544.40092,188.13855   L 545.40165,190.14003   L 546.40239,192.1415   L 547.40313,194.14297   L 547.40313,196.14445   L 548.40386,198.14592   L 550.40534,202.14887   L 552.40681,205.15108   L 554.40829,208.15329   L 556.40976,211.1555   L 558.41123,213.15698   L 560.41271,215.15845   L 562.41418,217.15992   L 565.41639,219.1614   L 567.41787,220.16213   L 569.41934,220.16213   L 571.42081,220.16213   L 573.42229,219.1614   L 575.42376,218.16066   L 577.42524,217.15992   L 580.42745,214.15771   L 582.42892,211.1555   L 584.43039,209.15403   L 586.43187,205.15108   L 588.43334,202.14887   L 589.43408,200.1474   L 591.43555,197.14518   L 592.43629,195.14371   L 593.43703,193.14224   L 593.43703,190.14003   L 594.43776,188.13855   L 595.4385,186.13708   L 596.43924,184.1356   L 597.43998,181.13339   L 598.44071,179.13192   L 599.44145,176.12971   L 600.44219,174.12823   L 601.44292,171.12602   L 602.44366,169.12455   L 603.4444,166.12234   L 604.44513,163.12013   L 605.44587,160.11792   L 606.44661,158.11644   L 607.44734,155.11423   L 608.44808,152.11202   L 609.44882,149.10981   L 609.44882,146.1076   L 610.44956,143.10539   L 611.45029,140.10318   L 612.45103,137.10097   L 613.45177,134.09875   L 614.4525,131.09654   L 615.45324,128.09433   L 616.45398,125.09212   L 617.45471,122.08991   L 618.45545,120.08844   L 618.45545,118.08696   L 619.45619,114.08402   L 620.45693,112.08254   L 621.45766,109.08033   L 622.4584,106.07812   L 623.45914,103.07591   L 624.45987,100.0737   L 625.46061,97.071487   L 626.46135,94.069276   L 627.46208,91.067065   L 628.46282,89.065591   L 629.46356,86.06338   L 629.46356,83.061169   L 630.4643,80.058958   L 631.46503,77.056747   L 632.46577,75.055273   L 633.46651,72.053062   L 634.46724,70.051588   L 635.46798,67.049377   L 636.46872,65.047903   L 637.46945,62.045693   L 638.47019,60.044219   L 639.47093,57.042008   L 640.47167,55.040534   L 641.4724,53.03906   L 642.47314,51.037586   L 643.47388,49.036112   L 644.47461,47.034638   L 645.47535,45.033164   L 645.47535,43.03169   L 646.47609,41.030216   L 647.47682,39.028742   L 650.47903,35.025794   L 652.48051,32.023583   L 654.48198,30.022109   L 657.48419,27.019898   L 660.4864,25.018424   L 662.48788,24.017687   L 664.48935,23.01695   L 666.49083,23.01695   L 668.4923,23.01695   L 670.49377,24.017687   L 672.49525,25.018424   L 674.49672,26.019161   L 676.4982,28.020635   L 678.49967,32.023583   L 680.50114,34.025057   L 682.50262,37.027268   L 683.50336,39.028742   L 684.50409,41.030216   L 686.50557,44.032427   L 687.5063,46.033901   L 688.50704,48.035375   L 689.50778,50.036849   L 690.50851,52.038323   L 691.50925,55.040534   L 692.50999,57.042008   L 692.50999,59.043482   L 693.51072,62.045693   L 694.51146,64.047167   L 695.5122,66.04864   L 696.51294,69.050851   L 697.51367,72.053062   L 698.51441,74.054536   L 699.51515,77.056747   L 700.51588,80.058958   L 701.51662,82.060432   L 702.51736,85.062643   L 703.51809,88.064854   L 704.51883,91.067065   L 705.51957,94.069276   L 706.52031,97.071487   L 707.52104,100.0737   L 707.52104,103.07591   L 708.52178,106.07812   L 709.52252,109.08033   L 710.52325,112.08254   L 711.52399,115.08475   L 712.52473,118.08696   L 713.52546,121.08917   L 714.5262,125.09212   L 715.52694,128.09433   L 716.52768,130.09581   L 717.52841,133.09802   L 718.52915,136.10023   L 719.52989,139.10244   L 720.53062,142.10465   L 721.53136,145.10686   L 722.5321,148.10907   L 723.53283,150.11055   L 723.53283,153.11276   L 724.53357,156.11497   L 725.53431,159.11718   L 726.53505,162.11939   L 727.53578,165.1216   L 728.53652,167.12308   L 729.53726,170.12529   L 730.53799,173.1275   L 731.53873,175.12897   L 732.53947,178.13118   L 733.5402,180.13266   L 734.54094,182.13413   L 735.54168,185.13634   L 736.54241,187.13781   L 737.54315,189.13929   L 738.54389,191.14076   L 739.54463,194.14297   L 739.54463,196.14445   L 740.54536,198.14592   L 742.54684,201.14813   L 743.54757,203.14961   L 744.54831,205.15108   L 746.54978,208.15329   L 748.55126,211.1555   L 751.55347,214.15771   L 753.55494,216.15919   L 756.55715,219.1614   L 759.55937,220.16213   L 762.56158,220.16213   L 765.56379,219.1614   L 768.566,218.16066   L 770.56747,217.15992   L 771.56821,215.15845   L 773.56968,213.15698   L 775.57116,210.15477   L 777.57263,208.15329   L 778.57337,206.15182   L 780.57484,203.14961   L 781.57558,201.14813   L 782.57632,199.14666   L 783.57705,197.14518   L 784.57779,195.14371   L 785.57853,193.14224   L 785.57853,191.14076   L 786.57926,189.13929   L 787.58,187.13781   L 788.58074,185.13634   L 789.58147,182.13413   L 790.58221,180.13266   L 791.58295,177.13044   L 792.58369,175.12897   L 793.58442,172.12676   L 794.58516,170.12529   L 795.5859,167.12308   L 796.58663,164.12086   L 797.58737,162.11939   L 798.58811,159.11718   L 799.58884,156.11497   L 800.58958,153.11276   L 801.59032,150.11055   L 801.59032,147.10834   L 802.59106,144.10612   L 803.59179,142.10465   L 804.59253,139.10244   L 805.59327,136.10023   L 806.594,133.09802   L 807.59474,130.09581   L 808.59548,127.0936   L 809.59621,124.09139   L 810.59695,122.08991   L 810.59695,119.0877   L 811.59769,116.08549   L 812.59843,114.08402   L 813.59916,112.08254   L 814.5999,109.08033   L 815.60064,106.07812   L 815.60064,103.07591   L 816.60137,100.0737   L 817.60211,97.071487   L 818.60285,94.069276   L 819.60358,91.067065   L 820.60432,88.064854   L 821.60506,85.062643   L 822.60579,83.061169   L 823.60653,80.058958   L 824.60727,77.056747   L 825.60801,74.054536   L 826.60874,72.053062   L 827.60948,69.050851   L 828.61022,67.049377   L 829.61095,64.047167   L 830.61169,62.045693   L 831.61243,59.043482   L 831.61243,57.042008   L 833.6139,53.03906   L 835.61538,48.035375   L 837.61685,44.032427   L 839.61832,41.030216   L 841.6198,37.027268   L 843.62127,34.025057   L 845.62275,32.023583   L 846.62348,29.021372   L 848.62496,27.019898   L 850.62643,26.019161   L 853.62864,24.017687   L 856.63085,23.01695   L 858.63233,23.01695   L 860.6338,23.01695   L 862.63527,24.017687   L 864.63675,25.018424   L 866.63822,27.019898   L 868.6397,29.021372   L 871.64191,32.023583   L 873.64338,35.025794   L 875.64485,38.028005   L 877.64633,41.030216   L 878.64707,45.033164   L 879.6478,47.034638   L 880.64854,49.036112   L 881.64928,51.037586   L 882.65001,53.03906   L 883.65075,55.040534   L 884.65149,57.042008   L 885.65222,60.044219   L 886.65296,62.045693   L 887.6537,64.047167   L 888.65444,67.049377   L 889.65517,69.050851   L 890.65591,72.053062   L 891.65665,75.055273   L 892.65738,77.056747   L 893.65812,80.058958   L 893.65812,83.061169   L 894.65886,86.06338   L 895.65959,88.064854   L 896.66033,91.067065   L 897.66107,94.069276   L 898.66181,97.071487   L 899.66254,100.0737   L 900.66328,103.07591   L 901.66402,106.07812   L 902.66475,109.08033   L 903.66549,112.08254   L 904.66623,115.08475   L 905.66696,118.08696   L 906.6677,121.08917   L 906.6677,123.09065   L 907.66844,126.09286   L 908.66917,130.09581   L 909.66991,132.09728   L 910.67065,135.09949   L 911.67139,138.1017   L 912.67212,141.10391   L 913.67286,144.10612   L 914.6736,147.10834   L 915.67433,150.11055   L 916.67507,153.11276   L 917.67581,156.11497   L 918.67654,159.11718   L 919.67728,161.11865   L 920.67802,164.12086   L 920.67802,167.12308   L 921.67876,170.12529   L 922.67949,172.12676   L 923.68023,175.12897   L 924.68097,177.13044   L 925.6817,180.13266   L 926.68244,182.13413   L 927.68318,184.1356   L 928.68391,187.13781   L 929.68465,189.13929   L 930.68539,191.14076   L 931.68613,193.14224   L 932.68686,195.14371   L 933.6876,197.14518   L 934.68834,199.14666   L 935.68907,203.14961   L 937.69055,206.15182   L 939.69202,209.15403   L 941.6935,212.15624   L 943.69497,214.15771   L 945.69644,216.15919   L 947.69792,217.15992   L 949.69939,219.1614   L 951.70086,219.1614   L 954.70308,220.16213   L 956.70455,220.16213   L 958.70602,219.1614   L 960.7075,218.16066   L 962.70897,217.15992   L 964.71045,215.15845   L 966.71192,213.15698   L 967.71266,211.1555   L 969.71413,208.15329   L 971.7156,205.15108   L 972.71634,203.14961   L 973.71708,201.14813   L 975.71855,198.14592   L 976.71929,196.14445   L 977.72003,194.14297   L 978.72076,192.1415   L 979.7215,189.13929   L 980.72224,187.13781   L 981.72297,185.13634   L 982.72371,183.13487   L 982.72371,180.13266   L 983.72445,178.13118   L 984.72519,175.12897   L 985.72592,173.1275   L 986.72666,170.12529   L 987.7274,167.12308   L 988.72813,165.1216   L 989.72887,162.11939   L 990.72961,159.11718   L 991.73034,156.11497   L 992.73108,154.11349   L 993.73182,151.11128   L 994.73255,148.10907   L 995.73329,145.10686   L 996.73403,142.10465   L 997.73477,139.10244   L 997.73477,136.10023   L 998.7355,133.09802   L 999.73624,130.09581   L 1000.737,127.0936   L 1001.7377,124.09139   L 1002.7385,121.08917  "
     id="path72" />
</svg>
